<svg role="img" aria-label="AI LAB" width="130" height="44" viewBox="0 0 130 44" fill="none" xmlns="http://www.w3.org/2000/svg">
<g id="info">
<g id="h1_mplanit">
<g id="Property 1=ai-lab">
<g id="Group 30">
<g id="Group">
<path id="Vector" d="M26.4506 9.42953C27.9443 9.42953 29.1551 8.21407 29.1551 6.71475C29.1551 5.21543 27.9443 4 26.4506 4C24.9569 4 23.7461 5.21543 23.7461 6.71475C23.7461 8.21407 24.9569 9.42953 26.4506 9.42953Z" fill="#1B4788"/>
<g id="Group_2">
<path id="Vector_2" d="M23.0887 16.4176L15.4875 33.6601C14.6725 35.509 15.5049 37.6711 17.3468 38.4892L17.3543 38.4925C19.1962 39.3107 21.3501 38.4751 22.1651 36.6262L29.7663 19.3838C30.5814 17.5349 29.749 15.3728 27.9071 14.5547L27.8996 14.5513C26.0577 13.7332 23.9038 14.5688 23.0887 16.4176Z" fill="#3899BF"/>
<path id="Vector_3" d="M8.57701 16.4333L0.975801 33.6758C0.160738 35.5246 0.993162 37.6867 2.83506 38.5048L2.84256 38.5082C4.68446 39.3263 6.83834 38.4907 7.6534 36.6419L15.2546 19.3994C16.0697 17.5505 15.2373 15.3885 13.3954 14.5703L13.3879 14.567C11.546 13.7488 9.39207 14.5844 8.57701 16.4333Z" fill="#3899BF"/>
<path id="Vector_4" d="M23.0988 19.4098L30.7 36.6523C31.515 38.5012 33.6689 39.3368 35.5108 38.5186L35.5183 38.5153C37.3602 37.6971 38.1926 35.5351 37.3776 33.6862L29.7764 16.4437C28.9613 14.5948 26.8074 13.7593 24.9655 14.5774L24.958 14.5807C23.1161 15.3989 22.2837 17.5609 23.0988 19.4098Z" fill="#1B4688"/>
<path id="Vector_5" d="M29.6632 16.2348C29.6223 16.1608 29.5813 16.0868 29.5403 16.0127C29.5239 15.9798 29.5075 15.9551 29.4829 15.9305C29.4338 15.8564 29.3846 15.7906 29.3354 15.7166C29.319 15.6919 29.2944 15.6672 29.278 15.6425C29.2289 15.5767 29.1715 15.5109 29.1141 15.4451C29.0895 15.4204 29.0649 15.3957 29.0404 15.371C28.983 15.3135 28.9256 15.2559 28.8601 15.1983C28.8355 15.1736 28.8027 15.1489 28.7781 15.1243C28.7125 15.0749 28.6552 15.0173 28.5896 14.9762C28.5568 14.9515 28.524 14.9268 28.4913 14.9104C28.4257 14.861 28.3601 14.8199 28.2864 14.7788C28.2536 14.7623 28.2126 14.7376 28.1798 14.7212C28.1061 14.68 28.0405 14.6471 27.9586 14.6142C27.9176 14.5978 27.8848 14.5813 27.8438 14.5649C27.7701 14.5319 27.7045 14.5073 27.6307 14.4826C27.5816 14.4661 27.5406 14.4497 27.4914 14.4332C27.4258 14.4168 27.3603 14.3921 27.2947 14.3839C27.2455 14.3674 27.1882 14.3592 27.139 14.351C27.0816 14.3427 27.0161 14.3263 26.9587 14.318C26.9013 14.3098 26.844 14.3016 26.7866 14.2934C26.7292 14.2934 26.6719 14.2852 26.6063 14.2852C26.5489 14.2852 26.4916 14.2852 26.426 14.2852C26.3686 14.2852 26.3113 14.2852 26.2457 14.2852C26.1883 14.2852 26.131 14.2851 26.0654 14.2934C26.008 14.2934 25.9507 14.3098 25.8933 14.318C25.8359 14.3263 25.7704 14.3345 25.713 14.351C25.6556 14.3592 25.6065 14.3756 25.5573 14.3839C25.4917 14.4003 25.4262 14.4168 25.3606 14.4332C25.3114 14.4497 25.2704 14.4661 25.2213 14.4826C25.1475 14.5073 25.0737 14.5319 25.0082 14.5649C24.9672 14.5813 24.9344 14.5978 24.8934 14.6142C24.8197 14.6471 24.7459 14.6883 24.6722 14.7212C24.6394 14.7376 24.5984 14.7623 24.5656 14.7788C24.4919 14.8199 24.4263 14.861 24.3607 14.9104C24.328 14.935 24.2952 14.9515 24.2624 14.9762C24.1968 15.0255 24.1313 15.0749 24.0739 15.1243C24.0493 15.1489 24.0165 15.1736 23.9919 15.1983C23.9264 15.2559 23.869 15.3135 23.8116 15.371C23.7871 15.3957 23.7625 15.4204 23.7379 15.4451C23.6805 15.5109 23.6231 15.5767 23.574 15.6425C23.5576 15.6672 23.533 15.6919 23.5166 15.7166C23.4674 15.7824 23.4182 15.8564 23.3691 15.9305C23.3527 15.9551 23.3363 15.9881 23.3117 16.0127C23.2707 16.0868 23.2297 16.1608 23.1888 16.2348C23.1724 16.2678 23.156 16.3007 23.1396 16.3336C22.6888 17.2714 22.6315 18.3902 23.0822 19.4103L26.4178 26.9787L29.7534 19.4103C30.2041 18.3902 30.1467 17.2714 29.696 16.3336C29.6796 16.3007 29.6632 16.2678 29.6468 16.2348H29.6632Z" fill="#0063A8"/>
<path id="Vector_6" d="M8.56275 19.4725L15.1835 36.4744C15.93 38.3913 18.0833 39.3379 19.9929 38.5886C21.9026 37.8393 22.8456 35.6779 22.0991 33.761L15.4783 16.759C14.7318 14.8421 12.5786 13.8956 10.6689 14.6449C8.75924 15.3942 7.81628 17.5556 8.56275 19.4725Z" fill="#3899BF"/>
</g>
</g>
</g>
<path id="Vector_7" d="M66.849 19.9675C68.0805 19.9675 69.0788 18.9691 69.0788 17.7376C69.0788 16.5061 68.0805 15.5078 66.849 15.5078C65.6175 15.5078 64.6191 16.5061 64.6191 17.7376C64.6191 18.9691 65.6175 19.9675 66.849 19.9675Z" fill="#3899BF"/>
<g id="AI LAB">
<path id="Vector_8" d="M112.957 35.2667V17.7383H121.521C123.724 17.7383 125.377 18.1556 126.479 18.9903C127.597 19.825 128.157 20.9268 128.157 22.2957C128.157 23.2138 127.931 24.0151 127.481 24.6996C127.03 25.3673 126.412 25.8848 125.628 26.2521C124.843 26.6193 123.942 26.803 122.923 26.803L123.399 25.7763C124.501 25.7763 125.477 25.9599 126.329 26.3272C127.18 26.6778 127.839 27.2036 128.307 27.9048C128.791 28.6059 129.033 29.4656 129.033 30.4839C129.033 31.9864 128.44 33.1633 127.255 34.0147C126.07 34.8494 124.325 35.2667 122.022 35.2667H112.957ZM116.989 32.2117H121.721C122.773 32.2117 123.566 32.0448 124.1 31.7109C124.651 31.3604 124.926 30.8095 124.926 30.0583C124.926 29.3237 124.651 28.7812 124.1 28.4306C123.566 28.0634 122.773 27.8797 121.721 27.8797H116.688V24.9249H121.02C122.005 24.9249 122.756 24.758 123.274 24.4241C123.808 24.0736 124.075 23.5477 124.075 22.8466C124.075 22.1621 123.808 21.653 123.274 21.3191C122.756 20.9685 122.005 20.7932 121.02 20.7932H116.989V32.2117Z" fill="#1B4688"/>
<path id="Vector_9" d="M92.0566 35.2667L99.8693 17.7383H103.876L111.714 35.2667H107.457L101.046 19.7916H102.649L96.2134 35.2667H92.0566ZM95.963 31.5106L97.0397 28.4306H106.054L107.156 31.5106H95.963Z" fill="#1B4688"/>
<path id="Vector_10" d="M78.002 35.2667V17.7383H82.0585V31.9613H90.8478V35.2667H78.002Z" fill="#1B4688"/>
<path id="Vector_11" d="M64.873 35.5963V21.5977H69.0806V35.5963H64.873Z" fill="#1B4688"/>
<path id="Vector_12" d="M42.8574 35.5911L50.9609 17.4102H55.1166L63.2461 35.5911H58.8307L52.1816 19.5399H53.8439L47.1689 35.5911H42.8574ZM46.9092 31.6952L48.026 28.5005H57.3762L58.519 31.6952H46.9092Z" fill="#1B4688"/>
</g>
</g>
</g>
</g>
</svg>
